<?xml version="1.0" encoding="utf-8"?>
<svg viewBox="0 0 46 79" xmlns="http://www.w3.org/2000/svg">
  <g stroke-width=".265" transform="matrix(1, 0, 0, 1, 144.316635, -78.301682)">
    <path d="M -131.805 103.359 C -123.863 98.5 -113.717 101.469 -109.915 108.776 C -109.195 110.161 -109.103 112.293 -109.559 113.746 C -111.135 118.761 -114.855 121.574 -119.961 122.769 C -118.455 121.48 -117.257 120.019 -116.876 117.999 C -116.474 116.064 -116.911 114.05 -118.078 112.455 C -119.937 109.901 -123.263 108.888 -126.23 109.971 C -129.373 111.164 -131.095 114.033 -130.785 117.56 C -130.497 120.836 -128.011 122.959 -123.36 123.765 C -124.056 124.133 -124.591 124.404 -125.115 124.696 C -127.245 125.863 -129.099 127.475 -130.55 129.423 C -131.022 130.06 -131.347 130.112 -132.066 129.672 C -141.415 123.955 -142.016 109.605 -131.806 103.359 L -131.805 103.359 Z M -138.803 138.688 C -140.305 139.07 -141.761 139.634 -143.296 140.138 C -142.545 135.071 -136.612 130.404 -131.594 130.936 C -133.048 132.939 -133.896 135.317 -134.039 137.787 C -135.707 138.094 -137.278 138.301 -138.803 138.688 Z M -106.844 89.217 C -105.36 89.271 -103.873 89.248 -102.388 89.284 C -102.017 89.308 -101.649 89.359 -101.285 89.437 C -101.617 89.947 -101.992 90.428 -102.406 90.875 C -102.937 91.37 -103.537 91.853 -104.302 91.101 C -104.486 90.92 -104.921 90.962 -105.241 90.958 C -106.718 90.938 -108.197 90.891 -109.672 90.947 C -110.951 90.988 -112.227 91.118 -113.488 91.336 C -113.725 91.379 -114.078 92.165 -113.969 92.455 C -113.713 93.139 -113.339 93.893 -112.785 94.331 C -110.737 95.947 -108.559 97.399 -106.501 99.004 C -104.502 100.564 -102.641 102.274 -101.507 104.628 C -100.03 107.694 -99.987 110.91 -100.624 114.139 C -101.688 119.531 -104.416 123.998 -108.835 127.242 C -110.615 128.55 -112.819 129.292 -114.858 130.231 C -116.652 131.057 -118.498 131.769 -120.295 132.586 C -123.536 134.06 -125.357 137.577 -124.822 141.235 C -124.33 144.591 -121.386 147.392 -118.013 147.97 C -113.967 148.664 -109.792 146.034 -108.802 141.922 C -107.689 137.297 -110.202 133.168 -114.905 131.917 C -115.112 131.862 -115.32 131.81 -115.752 131.698 C -114.494 131.136 -113.407 130.735 -112.404 130.183 C -110.654 129.22 -108.936 128.201 -107.249 127.124 C -106.754 126.807 -106.486 126.807 -106.063 127.173 C -102.828 129.969 -100.899 133.448 -100.358 137.713 C -99.462 144.773 -102.804 151.259 -109.108 154.584 C -118.86 159.727 -130.794 153.873 -132.948 143.061 C -134.794 133.799 -128.257 125.399 -120.391 123.777 C -117.008 123.079 -113.914 121.671 -111.509 119.065 C -109.957 117.384 -109.205 115.942 -108.948 115.291 C -108.471 114.071 -108.227 112.772 -108.228 111.462 C -108.28 110.329 -108.546 109.216 -109.013 108.182 C -109.834 106.31 -112.98 103.332 -113.759 102.704 L -121.168 96.904 C -121.429 96.689 -121.723 96.705 -122.36 96.748 C -123.117 96.799 -125.053 96.906 -125.888 96.688 C -125.212 96.176 -123.371 95.432 -122.58 94.834 C -124.98 93.212 -127.721 93.798 -130.237 93.313 C -129.655 92.23 -126.776 90.564 -125.139 90.379 C -125.236 89.464 -125.385 88.556 -125.585 87.659 C -125.685 87.291 -126.096 86.934 -126.455 86.723 C -127.324 86.214 -128.246 85.793 -129.246 85.286 C -128.35 84.707 -127.313 84.386 -126.247 84.358 C -125.238 84.32 -124.228 84.418 -123.245 84.651 C -121.461 85.058 -120.037 84.792 -118.618 83.58 C -119.735 83.13 -120.852 82.719 -121.935 82.233 C -123.003 81.746 -124.043 81.202 -125.052 80.604 C -122.241 80.994 -119.523 82.048 -116.649 81.663 C -116.625 81.532 -116.6 81.402 -116.576 81.271 C -118.724 80.771 -120.873 80.271 -123.251 79.717 C -119.272 79.353 -115.567 79.293 -112.059 81.002 C -111.072 81.482 -110.039 81.88 -109.093 82.43 C -108.631 82.697 -108.321 83.225 -107.942 83.636 C -107.641 83.962 -107.4 84.399 -107.03 84.595 C -105.628 85.341 -104.084 85.37 -102.512 85.333 C -102.5 85.154 -102.489 84.986 -102.477 84.806 C -100.894 85.3 -99.113 87.125 -99.116 88.458 C -101.68 88.458 -104.242 88.449 -106.804 88.473 C -107.077 88.475 -107.349 88.675 -107.622 88.784 C -107.363 88.935 -107.108 89.207 -106.844 89.217 Z" style="fill: rgb(255, 255, 255);"/>
  </g>
</svg>