<svg width="1538" height="210" viewBox="0 0 1538 210" fill="none" xmlns="http://www.w3.org/2000/svg">
<path d="M65.7132 204.476L0.500244 4.49222H24.9555L74.5901 158.827L125.493 4.49222H147.774L198.496 158.467L248.311 4.49222H272.041L207.009 204.476H188.895L136.182 43.4409L84.0113 204.476H65.7132ZM267.577 204.476V49.4109H292.213V204.476H267.577ZM349.324 136.908V204.476H325.051V50.1407H431.568C447.387 50.1407 459.766 53.9449 468.703 61.5533C477.638 69.1618 482.107 79.7288 482.107 93.2544C482.288 103.759 478.504 113.946 471.51 121.785C464.445 129.818 455.237 134.739 443.885 136.548L486.817 204.478H460.551L416.713 136.91L349.324 136.908ZM349.324 114.265H431.565C439.898 114.265 446.268 112.453 450.676 108.83C455.083 105.207 457.287 100.014 457.288 93.2518C457.288 86.49 455.084 81.3275 450.676 77.7643C446.266 74.2033 439.896 72.422 431.565 72.4202H349.324V114.265ZM504.99 204.476V49.7808H650.085V72.4241H529.259V111.008H608.602V133.289H529.259V182.198H656.785V204.48H504.98L504.99 204.476ZM827.46 150.318V120.972H772.934V97.9663H852.277V158.107C842.614 174.773 830.025 187.543 814.508 196.419C798.989 205.296 781.387 209.734 761.704 209.734C731.752 209.734 707.026 199.861 687.524 180.116C668.02 160.371 658.269 135.343 658.269 105.031C658.269 74.5986 668.051 49.5097 687.615 29.7643C707.179 10.0196 731.876 0.147217 761.704 0.147217C780.181 0.147217 797.028 4.19276 812.244 12.2839C827.443 20.3602 840.25 32.2924 849.379 46.8828L828.547 61.7363C822.413 49.9333 812.97 40.1755 801.375 33.6582C789.281 26.8286 775.592 23.3281 761.704 23.5135C739.242 23.5135 720.644 31.2122 705.911 46.6097C691.175 62.0066 683.808 81.4796 683.81 105.029C683.81 128.578 691.177 148.021 705.911 163.358C720.643 178.696 739.241 186.365 761.704 186.363C775.711 186.363 788.18 183.344 799.111 177.306C810.039 171.269 819.488 162.274 827.46 150.318ZM879.358 50.1436H903.631V149.231C903.631 164.085 907.134 174.108 914.138 179.301C921.141 184.494 935.029 187.091 955.802 187.09C976.693 187.09 990.642 184.494 997.647 179.301C1004.65 174.11 1008.15 164.087 1008.15 149.231V50.1436H1032.25V155.57C1032.25 174.531 1026.24 188.238 1014.22 196.691C1002.2 205.142 982.61 209.369 955.439 209.372C928.386 209.372 908.943 205.205 897.11 196.872C885.273 188.539 879.355 174.772 879.357 155.57L879.358 50.1436ZM1028.45 204.476L1107.07 49.7808H1122.29L1201.63 204.476H1175.73L1155.62 165.167H1073.92L1053.99 204.476H1028.45ZM1084.43 144.698H1144.93L1114.86 85.4626L1084.43 144.698ZM1228.55 136.908V204.476H1204.27V50.1406H1310.79C1326.61 50.1406 1338.99 53.9448 1347.93 61.5532C1356.86 69.1617 1361.33 79.7287 1361.33 93.2543C1361.51 103.759 1357.73 113.945 1350.73 121.784C1343.67 129.817 1334.46 134.739 1323.11 136.548L1366.04 204.478H1339.77L1295.94 136.91L1228.55 136.908ZM1228.55 114.265H1310.79C1319.12 114.265 1325.49 112.453 1329.9 108.83C1334.31 105.207 1336.51 100.014 1336.51 93.2517C1336.51 86.4899 1334.31 81.3274 1329.9 77.7642C1325.49 74.2032 1319.12 72.4218 1310.79 72.4201H1228.55V114.265ZM1453.24 49.7818C1478.48 49.7818 1498.83 56.9973 1514.29 71.4281C1529.74 85.861 1537.47 104.61 1537.47 127.674C1537.47 150.983 1529.9 169.611 1514.74 183.559C1499.58 197.506 1479.08 204.48 1453.24 204.481H1384.59V49.786H1453.24L1453.24 49.7818ZM1453.6 72.0631H1408.86V182.2H1453.6C1471.96 182.2 1486.39 177.278 1496.9 167.436C1507.4 157.595 1512.66 144.221 1512.66 127.312C1512.66 111.009 1507.22 97.7246 1496.35 87.4596C1485.48 77.1966 1471.23 72.0651 1453.6 72.0631Z" fill="white"/>
</svg>
